<svg xmlns="http://www.w3.org/2000/svg" width="27.383" height="29.68" viewBox="0 0 27.383 29.68">
  <g id="그룹_4730" data-name="그룹 4730" transform="translate(-1549.142 -78.28)">
    <g id="그룹_4722" data-name="그룹 4722" transform="translate(1563.533 95.461)">
      <g id="그룹_4720" data-name="그룹 4720" transform="translate(2.819 2.819)">
        <g id="그룹_4718" data-name="그룹 4718" transform="translate(2.585)">
          <path id="패스_5565" data-name="패스 5565" d="M1631.925,167.93a.845.845,0,0,1-.845-.846v-5.169a.845.845,0,1,1,1.691,0v5.169A.845.845,0,0,1,1631.925,167.93Z" transform="translate(-1631.079 -161.07)" fill="#b1b1b1"/>
        </g>
        <g id="그룹_4719" data-name="그룹 4719" transform="translate(0 2.585)">
          <path id="패스_5566" data-name="패스 5566" d="M1626.395,173.46h-5.169a.846.846,0,0,1,0-1.691h5.169a.846.846,0,1,1,0,1.691Z" transform="translate(-1620.38 -171.769)" fill="#b1b1b1"/>
        </g>
      </g>
      <g id="그룹_4721" data-name="그룹 4721" transform="translate(0)">
        <path id="패스_5567" data-name="패스 5567" d="M1614.961,161.9a6.249,6.249,0,1,1,6.249-6.249A6.256,6.256,0,0,1,1614.961,161.9Zm0-10.807a4.558,4.558,0,1,0,4.558,4.558A4.563,4.563,0,0,0,1614.961,151.092Z" transform="translate(-1608.712 -149.401)" fill="#b1b1b1"/>
      </g>
    </g>
    <g id="그룹_4723" data-name="그룹 4723" transform="translate(1549.142 86.246)">
      <path id="패스_5568" data-name="패스 5568" d="M1564.62,130.225h-10.141a2.106,2.106,0,0,1-2-1.613l-3.3-15.388a1.594,1.594,0,0,1,1.59-1.968h24.14a1.574,1.574,0,0,1,1.565,1.981l-2.179,9.14a.845.845,0,1,1-1.645-.392l2.155-9.037h-23.954l3.283,15.31a.421.421,0,0,0,.343.277h10.141a.846.846,0,0,1,0,1.691Z" transform="translate(-1549.142 -111.256)" fill="#b1b1b1"/>
    </g>
    <g id="그룹_4728" data-name="그룹 4728" transform="translate(1550.306 86.431)">
      <g id="그룹_4724" data-name="그룹 4724" transform="translate(6.619)">
        <path id="패스_5569" data-name="패스 5569" d="M1583.762,130.807a.845.845,0,0,1-.84-.769l-1.56-17.093a.846.846,0,0,1,1.684-.154l1.56,17.093a.845.845,0,0,1-.766.919C1583.814,130.805,1583.789,130.807,1583.762,130.807Z" transform="translate(-1581.358 -112.022)" fill="#b1b1b1"/>
      </g>
      <g id="그룹_4725" data-name="그룹 4725" transform="translate(16.02 0)">
        <path id="패스_5570" data-name="패스 5570" d="M1621.12,123.087c-.025,0-.051,0-.078,0a.845.845,0,0,1-.765-.919l.855-9.373a.845.845,0,0,1,1.684.154l-.855,9.373A.846.846,0,0,1,1621.12,123.087Z" transform="translate(-1620.273 -112.023)" fill="#b1b1b1"/>
      </g>
      <g id="그룹_4726" data-name="그룹 4726" transform="translate(2.038 11.782)">
        <path id="패스_5571" data-name="패스 5571" d="M1574.7,162.482h-11.454a.846.846,0,1,1,0-1.691H1574.7a.846.846,0,0,1,0,1.691Z" transform="translate(-1562.398 -160.791)" fill="#b1b1b1"/>
      </g>
      <g id="그룹_4727" data-name="그룹 4727" transform="translate(0 5.764)">
        <path id="패스_5572" data-name="패스 5572" d="M1578,137.575h-23.2a.846.846,0,1,1,0-1.691H1578a.846.846,0,0,1,0,1.691Z" transform="translate(-1553.96 -135.884)" fill="#b1b1b1"/>
      </g>
    </g>
    <g id="그룹_4729" data-name="그룹 4729" transform="translate(1551.369 78.894)">
      <path id="패스_5573" data-name="패스 5573" d="M1559.207,89.866a.846.846,0,0,1-.744-1.246l3.954-7.352a.846.846,0,0,1,.745-.445h13.346a.845.845,0,0,1,.744.445l3.954,7.352a.845.845,0,1,1-1.489.8L1576,82.513h-12.335l-3.715,6.907A.845.845,0,0,1,1559.207,89.866Z" transform="translate(-1558.362 -80.822)" fill="#b1b1b1"/>
    </g>
    <rect id="사각형_3976" data-name="사각형 3976" width="7.538" height="2.796" rx="1.398" transform="translate(1559.073 78.28)" fill="#b1b1b1"/>
  </g>
</svg>
